<svg width="30" height="30" viewBox="0 0 30 30" fill="none" xmlns="http://www.w3.org/2000/svg">
<g clip-path="url(#clip0_2137_5398)">
<path d="M15 29C22.732 29 29 22.732 29 15C29 7.26801 22.732 1 15 1C7.26801 1 1 7.26801 1 15C1 22.732 7.26801 29 15 29Z" stroke="#E65765" stroke-width="2"/>
<path d="M11.6002 20.733C12.6002 21.333 13.8002 21.6663 15.0002 21.6663C18.6668 21.6663 21.6668 18.6663 21.6668 14.9997C21.6668 11.333 18.6668 8.33301 15.0002 8.33301C11.3335 8.33301 8.3335 11.333 8.3335 14.9997C8.3335 16.1997 8.66683 17.333 9.20016 18.333L8.77394 19.9723C8.57922 20.7213 9.27242 21.3981 10.0165 21.1855L11.6002 20.733Z" stroke="#E65765" stroke-width="2" stroke-miterlimit="10" stroke-linecap="round" stroke-linejoin="round"/>
<path d="M18 16.899C18 17.007 17.976 17.118 17.9249 17.226C17.8738 17.334 17.8077 17.436 17.7206 17.532C17.5734 17.694 17.4111 17.811 17.2278 17.886C17.0476 17.961 16.8523 18 16.642 18C16.3355 18 16.008 17.928 15.6625 17.781C15.317 17.634 14.9715 17.436 14.6289 17.187C14.2834 16.935 13.9559 16.656 13.6435 16.347C13.334 16.035 13.0546 15.708 12.8052 15.366C12.5588 15.024 12.3605 14.682 12.2163 14.343C12.0721 14.001 12 13.674 12 13.362C12 13.158 12.0361 12.963 12.1082 12.783C12.1803 12.6 12.2944 12.432 12.4537 12.282C12.646 12.093 12.8563 12 13.0786 12C13.1627 12 13.2469 12.018 13.322 12.054C13.4001 12.09 13.4692 12.144 13.5233 12.222L14.2203 13.203C14.2744 13.278 14.3135 13.347 14.3405 13.413C14.3676 13.476 14.3826 13.539 14.3826 13.596C14.3826 13.668 14.3615 13.74 14.3195 13.809C14.2804 13.878 14.2233 13.95 14.1512 14.022L13.9229 14.259C13.8898 14.292 13.8748 14.331 13.8748 14.379C13.8748 14.403 13.8778 14.424 13.8838 14.448C13.8928 14.472 13.9019 14.49 13.9079 14.508C13.9619 14.607 14.0551 14.736 14.1873 14.892C14.3225 15.048 14.4667 15.207 14.6229 15.366C14.7852 15.525 14.9414 15.672 15.1007 15.807C15.2569 15.939 15.3861 16.029 15.4882 16.083C15.5033 16.089 15.5213 16.098 15.5423 16.107C15.5663 16.116 15.5904 16.119 15.6174 16.119C15.6685 16.119 15.7076 16.101 15.7406 16.068L15.969 15.843C16.0441 15.768 16.1162 15.711 16.1853 15.675C16.2544 15.633 16.3235 15.612 16.3986 15.612C16.4557 15.612 16.5158 15.624 16.5819 15.651C16.648 15.678 16.7171 15.717 16.7922 15.768L17.7867 16.473C17.8648 16.527 17.9189 16.59 17.9519 16.665C17.982 16.74 18 16.815 18 16.899Z" stroke="#E65765" stroke-width="1.5" stroke-miterlimit="10"/>
</g>
<defs>
<clipPath id="clip0_2137_5398">
<rect width="30" height="30" fill="white"/>
</clipPath>
</defs>
</svg>
